<?xml version="1.0" encoding="iso-8859-1"?>
<!-- Generator: Adobe Illustrator 19.0.0, SVG Export Plug-In . SVG Version: 6.00 Build 0)  -->
<svg version="1.1" id="Capa_1" xmlns="http://www.w3.org/2000/svg" xmlns:xlink="http://www.w3.org/1999/xlink" x="0px" y="0px"
	 viewBox="0 0 512 512" style="enable-background:new 0 0 512 512;" xml:space="preserve">
<path style="fill:#FFD15C;" d="M400.65,305.067c8.533-8.533,16-18.133,22.4-29.867c18.133-36.267,28.8-90.667,10.667-126.933
	c-7.467-14.933-18.133-28.8-23.467-45.867s-3.2-36.267-7.467-54.4s-16-36.267-34.133-36.267c8.533,9.6,10.667,24.533,9.6,37.333
	s-2.133,26.667,0,39.467c3.2,17.067,14.933,32,21.333,49.067c6.4,17.067,6.4,38.4-7.467,49.067
	c18.133-62.933-38.4-49.067-33.067-133.333c-33.067,33.067,5.333,84.267-30.933,101.333c7.467-23.467-4.267-48-8.533-71.467
	c-4.267-21.333-2.133-43.733,4.267-65.067c-13.867,5.333-21.333,22.4-22.4,37.333c-1.067,16,2.133,30.933,2.133,46.933
	s-4.267,33.067-16,41.6c10.667-54.4-59.733-32-58.667-141.867C179.85,83.2,232.116,108.8,236.383,124.8
	c4.267,16,1.067,36.267-12.8,41.6c8.533-8.533,8.533-23.467,3.2-34.133c-5.333-10.667-13.867-19.2-21.333-28.8
	c-5.333-10.667-12.8-21.333-12.8-34.133s7.467-23.467,11.733-35.2c5.333-10.667,7.467-25.6-1.067-34.133
	c1.067,9.6-5.333,19.2-12.8,24.533c-7.467,6.4-16,10.667-21.333,19.2c-8.533,11.733-7.467,27.733-6.4,41.6
	c1.067,17.067,3.2,34.133,4.267,51.2c-4.267-9.6-11.733-18.133-18.133-26.667S138.25,90.667,137.183,80
	c0-10.667,5.333-22.4,14.933-25.6c-14.933-4.267-29.867,11.733-33.067,27.733s0,33.067,1.067,49.067
	c1.067,23.467-4.267,46.933-14.933,67.2c1.067-30.933-5.333-61.867-18.133-89.6c6.4,17.067,0,38.4-3.2,57.6
	c-4.267,18.133-11.733,36.267-13.867,54.4c-4.267,29.867,4.267,61.867,22.4,85.333H400.65V305.067z"/>
<path style="fill:#F3705A;" d="M343.05,195.2c-41.6,0-76.8,26.667-89.6,62.933c-12.8-36.267-48-62.933-89.6-62.933
	c-52.267,0-94.933,42.667-94.933,94.933C69.983,425.6,253.45,512,253.45,512s184.533-87.467,184.533-221.867
	C437.983,237.867,395.316,195.2,343.05,195.2z"/>
<g>
</g>
<g>
</g>
<g>
</g>
<g>
</g>
<g>
</g>
<g>
</g>
<g>
</g>
<g>
</g>
<g>
</g>
<g>
</g>
<g>
</g>
<g>
</g>
<g>
</g>
<g>
</g>
<g>
</g>
</svg>
